<?xml version="1.0" standalone="no"?><!DOCTYPE svg PUBLIC "-//W3C//DTD SVG 1.1//EN" "http://www.w3.org/Graphics/SVG/1.1/DTD/svg11.dtd"><svg t="1713059552237" class="icon" viewBox="0 0 1024 1024" version="1.1" xmlns="http://www.w3.org/2000/svg" p-id="4355" xmlns:xlink="http://www.w3.org/1999/xlink" width="200" height="200"><path d="M512 0c282.77 0 512 229.23 512 512S794.77 1024 512 1024 0 794.77 0 512 229.23 0 512 0z" fill="#5DDDD3" p-id="4356"></path><path d="M297.528 457.158H498.14v17.47H297.528v-17.47z m0 93.464H498.14v17.48H297.528v-17.48z m0-46.738H498.14v17.48H297.528v-17.48z" fill="#FF5B61" p-id="4357"></path><path d="M297.528 250.58H498.14v17.48H297.528v-17.48z m0 93.464H498.14v17.48H297.528v-17.48z m0-46.732H498.14v17.48H297.528v-17.48z" fill="#20D0C2" p-id="4358"></path><path d="M314.242 871.85h167.186v-17.48h-167.18v17.48h-0.006zM314.242 152.15h167.186v17.48h-167.186v-17.48z" fill="#FF5B61" p-id="4359"></path><path d="M297.528 664.858H498.14v17.48H297.528v-17.48z m0 93.464H498.14v17.484H297.528v-17.484z m0-46.732H498.14v17.48H297.528v-17.48z" fill="#20D0C2" p-id="4360"></path><path d="M387.108 598.018c45.052 8.478 74.866 24.316 94.354 42.394 46.652 43.274 46.652 116.562 0 159.83-19.494 18.072-49.302 33.916-94.354 42.388-37.97 7.146-59.022 24.792-70.7 42.262h-42.01c12.46-30.002 40.904-66.646 105.854-78.868 37.22-6.998 60.964-19.268 75.836-33.056 30.626-28.412 30.626-76.87 0-105.288-14.872-13.786-38.61-26.052-75.836-33.05-154.59-29.09-153.052-216.466 0-245.262 37.22-7.004 60.964-19.268 75.836-33.05 30.626-28.418 30.626-76.876 0-105.288-14.872-13.786-38.61-26.056-75.836-33.056-69.526-13.084-97.22-54.154-108.256-85.1h40.61c10.686 19.332 31.996 40.494 74.504 48.488 45.052 8.472 74.856 24.316 94.354 42.392 46.652 43.274 46.652 116.562 0 159.83-19.494 18.078-49.302 33.916-94.354 42.394-113.004 21.256-113.004 150.786 0 172.042v-0.002z" fill="#FF5B61" p-id="4361"></path><path d="M397.874 598.018c-45.052 8.478-74.86 24.316-94.354 42.394-46.652 43.274-46.652 116.562 0 159.83 19.494 18.072 49.302 33.916 94.354 42.388 37.966 7.146 59.018 24.792 70.696 42.262h42.01c-12.46-30.002-40.904-66.64-105.854-78.868-37.22-6.998-60.958-19.268-75.832-33.056-30.632-28.412-30.632-76.87 0-105.288 14.868-13.786 38.61-26.052 75.832-33.05 153.64-28.91 152.874-216.498 0-245.262-37.22-7.004-60.958-19.268-75.832-33.05-30.632-28.418-30.632-76.876 0-105.288 14.868-13.786 38.61-26.056 75.832-33.056 69.526-13.088 97.224-54.154 108.262-85.1h-40.614c-10.68 19.332-31.996 40.494-74.498 48.488-45.052 8.472-74.86 24.316-94.354 42.392-46.652 43.274-46.652 116.562 0 159.83 19.494 18.078 49.302 33.916 94.354 42.394 113 21.256 113 150.786 0 172.042v-0.002z" fill="#1A91A1" p-id="4362"></path><path d="M511.166 313.318c108.168-28.296 218.796 36.454 247.092 144.616 17.48 66.828-0.562 134.576-42.398 183.286l94.376 93.132-19.61 19.332-94.082-92.844c-23.036 20.418-51.096 35.862-82.908 44.182-108.168 28.296-218.8-36.45-247.092-144.616-28.296-108.168 36.45-218.796 144.616-247.092l0.006 0.004z m5.97 22.82c-95.566 25.002-152.77 122.74-127.772 218.302 25.002 95.566 122.74 152.768 218.308 127.772 95.562-25.002 152.77-122.74 127.766-218.302-24.998-95.566-122.736-152.77-218.296-127.772h-0.006z" fill="#666666" p-id="4363"></path><path d="M517.142 336.132c95.566-24.998 193.3 32.206 218.296 127.772 25.002 95.566-32.206 193.3-127.766 218.302-95.566 24.998-193.304-32.206-218.302-127.766-24.998-95.566 32.204-193.304 127.772-218.308z" fill="#20D0C2" p-id="4364"></path><path d="M552.552 687.794c-53.052-22.93-95.394-69.142-111.152-129.388-24.666-94.276 24.252-190.488 111.126-227.85 83.222-4.69 161 49.602 182.908 133.348 25.002 95.566-32.206 193.3-127.766 218.302a178.794 178.794 0 0 1-55.12 5.586h0.004z" fill="#5DDDD3" p-id="4365"></path><path d="M706.444 687.878l42.602-42c6.39-6.306 16.76-6.222 23.062 0.162l203.22 205.596c6.306 6.384 6.228 16.766-0.162 23.072l-42.602 42c-6.384 6.296-16.756 6.216-23.062-0.162L706.28 710.944c-6.296-6.374-6.222-16.756 0.174-23.062l-0.01-0.004z" fill="#FBB429" p-id="4366"></path><path d="M403.68 426.736h180.206v27.17h-191.61a179.386 179.386 0 0 1 11.404-27.17z m4.14 172.468a177.694 177.694 0 0 1-12.874-27.17h188.94v27.17H407.82z m-23.444-72.646a178.38 178.38 0 0 1-0.598-27.17h200.11v27.17h-199.512zM465.772 659.664c19.646 6.562 36.754 14.216 51.62 22.626a179.614 179.614 0 0 1-51.62-22.626z m65.88-326.69c-21.042 13.954-47.334 26.298-80.09 35.784 18.802-14.862 40.914-26.178 65.58-32.63a182.742 182.742 0 0 1 14.51-3.154z" fill="#FF5B61" p-id="4367"></path><path d="M508.402 679.694c147.854-73.744 144.894-268.726-7.02-338.646a177.692 177.692 0 0 0-63.188 39.408c160.438 37.614 162.06 221.372 4.836 261.918a179.892 179.892 0 0 0 65.372 37.32z" fill="#1A91A1" p-id="4368"></path><path d="M517.142 336.132a179.64 179.64 0 0 1 35.394-5.576c-2.066 0.886-4.112 1.82-6.138 2.776a179.838 179.838 0 0 0-12.49 2.802c-95.566 25.002-152.77 122.74-127.778 218.302 18.11 69.222 74.384 118.298 140.346 130.6 2.01 0.954 4.034 1.878 6.074 2.76-75.512-4.144-143.016-56.268-163.188-133.358-24.998-95.562 32.206-193.3 127.772-218.302h0.008z" fill="#ECF0F1" p-id="4369"></path><path d="M606.292 346.61a163.694 163.694 0 0 0-32.546-5.178c1.904 0.828 3.778 1.694 5.64 2.582a163.928 163.928 0 0 1 25.952 7.15c80.868 28.848 127.546 114.342 105.36 198.042-14.6 55.084-55.592 96.422-106.08 114.29a163.4 163.4 0 0 1-25.302 6.908c-1.852 0.886-3.708 1.746-5.592 2.56 69.446-3.85 131.534-52.218 150.078-123.758 22.994-88.678-29.618-179.388-117.51-202.59v-0.006z" fill="#FFFFFF" p-id="4370"></path><path d="M877.578 870.466l-173.014-175.038a18.02 18.02 0 0 1-1.768-2.098c-2.376 5.86-1.228 12.848 3.472 17.61l164.458 166.382 38.768 39.22c4.884 4.946 12.218 6.106 18.24 3.446a17.41 17.41 0 0 1-4.418-3.252l-45.738-46.27z" fill="#F5A209" p-id="4371"></path></svg>